<?xml version="1.0" encoding="UTF-8" standalone="no"?>
<!DOCTYPE svg PUBLIC "-//W3C//DTD SVG 1.1//EN" "http://www.w3.org/Graphics/SVG/1.1/DTD/svg11.dtd">
<svg width="100%" height="100%" viewBox="0 0 1411 1285" version="1.1" xmlns="http://www.w3.org/2000/svg" xmlns:xlink="http://www.w3.org/1999/xlink" xml:space="preserve" xmlns:serif="http://www.serif.com/" style="fill-rule:evenodd;clip-rule:evenodd;stroke-linejoin:round;stroke-miterlimit:2;">
    <g id="ArtBoard1" transform="matrix(0.979861,0,0,0.803333,0,0)">
        <rect x="0" y="0" width="1440" height="900" style="fill:none;"/>
        <clipPath id="_clip1">
            <rect x="0" y="0" width="1440" height="900"/>
        </clipPath>
        <g clip-path="url(#_clip1)">
            <g id="bg1" transform="matrix(3.45333,0,0,3.13787,-931.46,-591.867)">
                <rect x="269.728" y="188.621" width="416.988" height="299.771" style="fill:rgb(245,105,38);"/>
            </g>
            <g transform="matrix(1.02055,0,0,1.24481,-348.542,-138.006)">
                <rect x="410.07" y="222.413" width="314.31" height="222.576" style="fill:rgb(235,235,235);"/>
            </g>
            <g transform="matrix(0.085765,0,0,0.147302,-31.0875,-27.7825)">
                <rect x="410.07" y="222.413" width="314.31" height="222.576" style="fill:rgb(255,52,0);"/>
            </g>
            <g transform="matrix(0.085765,0,0,0.147302,1373.79,-27.7825)">
                <rect x="410.07" y="222.413" width="314.31" height="222.576" style="fill:rgb(255,52,0);"/>
            </g>
            <g transform="matrix(0.085765,0,0,0.147302,1373.79,829.473)">
                <rect x="410.07" y="222.413" width="314.31" height="222.576" style="fill:rgb(255,52,0);"/>
            </g>
            <g transform="matrix(0.085765,0,0,0.147302,-31.0875,829.473)">
                <rect x="410.07" y="222.413" width="314.31" height="222.576" style="fill:rgb(255,52,0);"/>
            </g>
            <g transform="matrix(1.02055,0,0,1.24481,-348.542,-138.006)">
                <rect x="846.195" y="469.494" width="236.318" height="183.046" style="fill:rgb(235,235,235);"/>
            </g>
            <g transform="matrix(1.02055,0,0,1.24481,-503.113,-104.334)">
                <text x="818.397px" y="327.771px" style="font-family:'ArialMT', 'Arial', sans-serif;font-size:48px;">Ebene 1</text>
            </g>
        </g>
    </g>
    <g id="ArtBoard2" transform="matrix(0.979861,0,0,0.803333,0,0)">
        <rect x="0" y="0" width="1440" height="900" style="fill:none;"/>
        <clipPath id="_clip2">
            <rect x="0" y="0" width="1440" height="900"/>
        </clipPath>
        <g clip-path="url(#_clip2)">
            <g id="bg2" transform="matrix(3.45333,0,0,3.00229,-931.46,-566.294)">
                <rect x="269.728" y="188.621" width="416.988" height="299.771" style="fill:rgb(23,27,124);"/>
            </g>
            <g transform="matrix(1.02055,0,0,1.24481,133.021,-94.5763)">
                <rect x="410.07" y="222.413" width="314.31" height="222.576" style="fill:rgb(235,235,235);"/>
            </g>
            <g transform="matrix(0.085765,0,0,0.147302,-31.0875,-27.7825)">
                <rect x="410.07" y="222.413" width="314.31" height="222.576" style="fill:rgb(255,52,0);"/>
            </g>
            <g transform="matrix(0.085765,0,0,0.147302,1373.79,-27.7825)">
                <rect x="410.07" y="222.413" width="314.31" height="222.576" style="fill:rgb(255,52,0);"/>
            </g>
            <g transform="matrix(0.085765,0,0,0.147302,1373.79,829.473)">
                <rect x="410.07" y="222.413" width="314.31" height="222.576" style="fill:rgb(255,52,0);"/>
            </g>
            <g transform="matrix(0.085765,0,0,0.147302,-31.0875,829.473)">
                <rect x="410.07" y="222.413" width="314.31" height="222.576" style="fill:rgb(255,52,0);"/>
            </g>
            <g transform="matrix(1.02055,0,0,1.24481,133.021,-94.5763)">
                <rect x="846.195" y="469.494" width="236.318" height="183.046" style="fill:rgb(235,235,235);"/>
            </g>
            <g transform="matrix(1.02055,0,0,1.24481,-21.5498,-60.9036)">
                <text x="818.397px" y="327.771px" style="font-family:'ArialMT', 'Arial', sans-serif;font-size:48px;">Ebene 2</text>
            </g>
        </g>
    </g>
    <g id="ArtBoard3" transform="matrix(0.979861,0,0,1.42744,0,0)">
        <rect x="0" y="0" width="1440" height="900" style="fill:none;"/>
        <clipPath id="_clip3">
            <rect x="0" y="0" width="1440" height="900"/>
        </clipPath>
        <g clip-path="url(#_clip3)">
            <g id="bg3" transform="matrix(3.45333,0,0,3.00229,-931.46,-566.294)">
                <rect x="269.728" y="188.621" width="416.988" height="299.771" style="fill:rgb(83,19,81);"/>
            </g>
            <g transform="matrix(1.02055,0,0,0.700553,-190.902,-7.13878)">
                <rect x="410.07" y="222.413" width="314.31" height="222.576" style="fill:rgb(235,235,235);"/>
            </g>
            <g transform="matrix(0.085765,0,0,0.0828981,-31.0875,-15.6354)">
                <rect x="410.07" y="222.413" width="314.31" height="222.576" style="fill:rgb(255,52,0);"/>
            </g>
            <g transform="matrix(0.085765,0,0,0.0828981,934.481,49.1574)">
                <rect x="410.07" y="222.413" width="314.31" height="222.576" style="fill:rgb(255,52,0);"/>
            </g>
            <g transform="matrix(0.085765,0,0,0.0828981,1373.79,860.309)">
                <rect x="410.07" y="222.413" width="314.31" height="222.576" style="fill:rgb(255,52,0);"/>
            </g>
            <g transform="matrix(0.085765,0,0,0.0828981,-31.0875,860.309)">
                <rect x="410.07" y="222.413" width="314.31" height="222.576" style="fill:rgb(255,52,0);"/>
            </g>
            <g transform="matrix(1.02055,0,0,0.700553,-190.902,-7.13878)">
                <rect x="846.195" y="469.494" width="236.318" height="183.046" style="fill:rgb(235,235,235);"/>
            </g>
            <g transform="matrix(1.02055,0,0,0.700553,-345.473,11.8115)">
                <text x="818.397px" y="327.771px" style="font-family:'ArialMT', 'Arial', sans-serif;font-size:48px;">Ebene 3 (groß)</text>
            </g>
        </g>
    </g>
    <g id="ArtBoard4" transform="matrix(0.979861,0,0,0.803333,0,0)">
        <rect x="0" y="0" width="1440" height="900" style="fill:none;"/>
        <clipPath id="_clip4">
            <rect x="0" y="0" width="1440" height="900"/>
        </clipPath>
        <g clip-path="url(#_clip4)">
            <g id="bg4" transform="matrix(3.45333,0,0,3.00229,-931.46,-566.294)">
                <rect x="269.728" y="188.621" width="416.988" height="299.771" style="fill:rgb(230,204,23);"/>
            </g>
            <g transform="matrix(1.02055,0,0,1.24481,133.021,-94.5763)">
                <rect x="410.07" y="222.413" width="314.31" height="222.576" style="fill:rgb(235,235,235);"/>
            </g>
            <g transform="matrix(0.085765,0,0,0.147302,-31.0875,-27.7825)">
                <rect x="410.07" y="222.413" width="314.31" height="222.576" style="fill:rgb(255,52,0);"/>
            </g>
            <g transform="matrix(0.085765,0,0,0.147302,1373.79,-27.7825)">
                <rect x="410.07" y="222.413" width="314.31" height="222.576" style="fill:rgb(255,52,0);"/>
            </g>
            <g transform="matrix(0.085765,0,0,0.147302,1373.79,829.473)">
                <rect x="410.07" y="222.413" width="314.31" height="222.576" style="fill:rgb(255,52,0);"/>
            </g>
            <g transform="matrix(0.085765,0,0,0.147302,-31.0875,829.473)">
                <rect x="410.07" y="222.413" width="314.31" height="222.576" style="fill:rgb(255,52,0);"/>
            </g>
            <g transform="matrix(1.02055,0,0,1.24481,133.021,-94.5763)">
                <rect x="846.195" y="469.494" width="236.318" height="183.046" style="fill:rgb(235,235,235);"/>
            </g>
            <g transform="matrix(1.02055,0,0,1.24481,-21.5498,-60.9036)">
                <text x="818.397px" y="327.771px" style="font-family:'ArialMT', 'Arial', sans-serif;font-size:48px;">Ebene 4</text>
            </g>
        </g>
    </g>
</svg>
