<?xml version="1.0" encoding="UTF-8" standalone="no"?>
<!DOCTYPE svg PUBLIC "-//W3C//DTD SVG 1.1//EN" "http://www.w3.org/Graphics/SVG/1.1/DTD/svg11.dtd">
<svg width="100%" height="100%" viewBox="0 0 1425 4000" version="1.1" xmlns="http://www.w3.org/2000/svg" xmlns:xlink="http://www.w3.org/1999/xlink" xml:space="preserve" xmlns:serif="http://www.serif.com/" style="fill-rule:evenodd;clip-rule:evenodd;stroke-linejoin:round;stroke-miterlimit:2;">
    <g id="ArtBoard1" transform="matrix(0.989583,0,0,1,0,0)">
        <rect x="0" y="0" width="1440" height="900" style="fill:none;"/>
        <clipPath id="_clip1">
            <rect x="0" y="0" width="1440" height="900"/>
        </clipPath>
        <g clip-path="url(#_clip1)">
            <g id="bg1" transform="matrix(3.45333,0,0,3.00229,-931.46,-566.294)">
                <rect x="269.728" y="188.621" width="416.988" height="299.771" style="fill:rgb(245,105,38);"/>
            </g>
            <g transform="matrix(1.01053,0,0,1,-345.117,-110.865)">
                <rect x="410.07" y="222.413" width="314.31" height="222.576" style="fill:rgb(235,235,235);"/>
            </g>
            <g transform="matrix(0.0849224,0,0,0.118332,-30.7821,-22.3186)">
                <rect x="410.07" y="222.413" width="314.31" height="222.576" style="fill:rgb(255,52,0);"/>
            </g>
            <g transform="matrix(0.0849224,0,0,0.118332,1360.29,-22.3186)">
                <rect x="410.07" y="222.413" width="314.31" height="222.576" style="fill:rgb(255,52,0);"/>
            </g>
            <g transform="matrix(0.0849224,0,0,0.118332,1374.44,843.343)">
                <rect x="410.07" y="222.413" width="314.31" height="222.576" style="fill:rgb(255,52,0);"/>
            </g>
            <g transform="matrix(0.0849224,0,0,0.118332,-26.74,843.343)">
                <rect x="410.07" y="222.413" width="314.31" height="222.576" style="fill:rgb(255,52,0);"/>
            </g>
            <g transform="matrix(1.01053,0,0,1,-345.117,-110.865)">
                <rect x="846.195" y="469.494" width="236.318" height="183.046" style="fill:rgb(235,235,235);"/>
            </g>
            <g transform="matrix(1.01053,0,0,1,-498.17,-83.8147)">
                <text x="818.397px" y="327.771px" style="font-family:'ArialMT', 'Arial', sans-serif;font-size:48px;">Ebene 1</text>
            </g>
        </g>
    </g>
    <g id="ArtBoard2" transform="matrix(0.989583,0,0,1,0,900)">
        <rect x="0" y="0" width="1440" height="900" style="fill:none;"/>
        <clipPath id="_clip2">
            <rect x="0" y="0" width="1440" height="900"/>
        </clipPath>
        <g clip-path="url(#_clip2)">
            <g id="bg2" transform="matrix(3.45333,0,0,3.00229,-931.46,-566.294)">
                <rect x="269.728" y="188.621" width="416.988" height="299.771" style="fill:rgb(23,27,124);"/>
            </g>
            <g transform="matrix(1.01053,0,0,1,131.714,-75.9763)">
                <rect x="410.07" y="222.413" width="314.31" height="222.576" style="fill:rgb(235,235,235);"/>
            </g>
            <g transform="matrix(0.0849224,0,0,0.118332,-30.7821,-22.3186)">
                <rect x="410.07" y="222.413" width="314.31" height="222.576" style="fill:rgb(255,52,0);"/>
            </g>
            <g transform="matrix(0.0849224,0,0,0.118332,1374.44,-22.3186)">
                <rect x="410.07" y="222.413" width="314.31" height="222.576" style="fill:rgb(255,52,0);"/>
            </g>
            <g transform="matrix(0.0849224,0,0,0.118332,1374.44,843.343)">
                <rect x="410.07" y="222.413" width="314.31" height="222.576" style="fill:rgb(255,52,0);"/>
            </g>
            <g transform="matrix(0.0849224,0,0,0.118332,-30.7821,843.343)">
                <rect x="410.07" y="222.413" width="314.31" height="222.576" style="fill:rgb(255,52,0);"/>
            </g>
            <g transform="matrix(1.01053,0,0,1,131.714,-75.9763)">
                <rect x="846.195" y="469.494" width="236.318" height="183.046" style="fill:rgb(235,235,235);"/>
            </g>
            <g transform="matrix(1.01053,0,0,1,-21.3381,-48.9259)">
                <text x="818.397px" y="327.771px" style="font-family:'ArialMT', 'Arial', sans-serif;font-size:48px;">Ebene 2</text>
            </g>
        </g>
    </g>
    <g id="ArtBoard3" transform="matrix(0.989583,0,0,1.44444,0,1800)">
        <rect x="0" y="0" width="1440" height="900" style="fill:none;"/>
        <clipPath id="_clip3">
            <rect x="0" y="0" width="1440" height="900"/>
        </clipPath>
        <g clip-path="url(#_clip3)">
            <g id="bg3" transform="matrix(3.45333,0,0,3.00229,-931.46,-566.294)">
                <rect x="269.728" y="188.621" width="416.988" height="299.771" style="fill:rgb(83,19,81);"/>
            </g>
            <g transform="matrix(1.01053,0,0,0.692308,-189.027,-7.05476)">
                <rect x="410.07" y="222.413" width="314.31" height="222.576" style="fill:rgb(235,235,235);"/>
            </g>
            <g transform="matrix(0.0849224,0,0,0.0819224,-30.7821,-15.4514)">
                <rect x="410.07" y="222.413" width="314.31" height="222.576" style="fill:rgb(255,52,0);"/>
            </g>
            <g transform="matrix(0.0849224,0,0,0.0819224,1374.44,-15.4514)">
                <rect x="410.07" y="222.413" width="314.31" height="222.576" style="fill:rgb(255,52,0);"/>
            </g>
            <g transform="matrix(0.0849224,0,0,0.0819224,1374.44,860.776)">
                <rect x="410.07" y="222.413" width="314.31" height="222.576" style="fill:rgb(255,52,0);"/>
            </g>
            <g transform="matrix(0.0849224,0,0,0.0819224,-30.7821,860.776)">
                <rect x="410.07" y="222.413" width="314.31" height="222.576" style="fill:rgb(255,52,0);"/>
            </g>
            <g transform="matrix(1.01053,0,0,0.692308,-189.027,-7.05476)">
                <rect x="846.195" y="469.494" width="236.318" height="183.046" style="fill:rgb(235,235,235);"/>
            </g>
            <g transform="matrix(1.01053,0,0,0.692308,-342.079,11.6725)">
                <text x="818.397px" y="327.771px" style="font-family:'ArialMT', 'Arial', sans-serif;font-size:48px;">Ebene 3 (groß)</text>
            </g>
        </g>
    </g>
    <g id="ArtBoard4" transform="matrix(0.989583,0,0,1,0,3100)">
        <rect x="0" y="0" width="1440" height="900" style="fill:none;"/>
        <clipPath id="_clip4">
            <rect x="0" y="0" width="1440" height="900"/>
        </clipPath>
        <g clip-path="url(#_clip4)">
            <g id="bg4" transform="matrix(3.45333,0,0,3.00229,-931.46,-566.294)">
                <rect x="269.728" y="188.621" width="416.988" height="299.771" style="fill:rgb(230,204,23);"/>
            </g>
            <g transform="matrix(1.01053,0,0,1,131.714,-75.9763)">
                <rect x="410.07" y="222.413" width="314.31" height="222.576" style="fill:rgb(235,235,235);"/>
            </g>
            <g transform="matrix(0.0849224,0,0,0.118332,-30.7821,-22.3186)">
                <rect x="410.07" y="222.413" width="314.31" height="222.576" style="fill:rgb(255,52,0);"/>
            </g>
            <g transform="matrix(0.0849224,0,0,0.118332,1374.44,-22.3186)">
                <rect x="410.07" y="222.413" width="314.31" height="222.576" style="fill:rgb(255,52,0);"/>
            </g>
            <g transform="matrix(0.0849224,0,0,0.118332,1374.44,843.343)">
                <rect x="410.07" y="222.413" width="314.31" height="222.576" style="fill:rgb(255,52,0);"/>
            </g>
            <g transform="matrix(0.0849224,0,0,0.118332,-30.7821,843.343)">
                <rect x="410.07" y="222.413" width="314.31" height="222.576" style="fill:rgb(255,52,0);"/>
            </g>
            <g transform="matrix(1.01053,0,0,1,131.714,-75.9763)">
                <rect x="846.195" y="469.494" width="236.318" height="183.046" style="fill:rgb(235,235,235);"/>
            </g>
            <g transform="matrix(1.01053,0,0,1,-21.3381,-48.9259)">
                <text x="818.397px" y="327.771px" style="font-family:'ArialMT', 'Arial', sans-serif;font-size:48px;">Ebene 4</text>
            </g>
        </g>
    </g>
</svg>
